<svg width="26" height="25" viewBox="0 0 26 25" fill="none" xmlns="http://www.w3.org/2000/svg">
<path d="M12.2303 1.47118C12.5824 0.747888 13.6131 0.74789 13.9652 1.47118L17.0485 7.80489C17.1878 8.09117 17.4595 8.29025 17.7744 8.33693L24.6929 9.3623C25.4798 9.47891 25.7953 10.4441 25.2294 11.003L20.2078 15.9623C19.9841 16.1833 19.8821 16.4995 19.9345 16.8096L21.1171 23.8009C21.2507 24.5909 20.4189 25.1901 19.7119 24.8131L13.5517 21.5282C13.268 21.3769 12.9275 21.3769 12.6438 21.5282L6.48355 24.8131C5.7766 25.1901 4.94479 24.5909 5.07841 23.8009L6.26098 16.8096C6.31343 16.4995 6.21143 16.1833 5.98766 15.9623L0.966095 11.003C0.400151 10.4441 0.715732 9.47891 1.50256 9.3623L8.42106 8.33693C8.73602 8.29025 9.00767 8.09117 9.14703 7.80489L12.2303 1.47118Z" fill="#FDA306"/>
</svg>
