<svg width="26" height="25" viewBox="0 0 26 25" fill="none" xmlns="http://www.w3.org/2000/svg">
<path d="M12.0692 1.47118C12.4213 0.747888 13.4519 0.74789 13.804 1.47118L16.8873 7.80489C17.0267 8.09117 17.2983 8.29025 17.6133 8.33693L24.5318 9.3623C25.3186 9.47891 25.6342 10.4441 25.0683 11.003L20.0467 15.9623C19.8229 16.1833 19.7209 16.4995 19.7734 16.8096L20.956 23.8009C21.0896 24.5909 20.2578 25.1901 19.5508 24.8131L13.3905 21.5282C13.1068 21.3769 12.7664 21.3769 12.4827 21.5282L6.32242 24.8131C5.61546 25.1901 4.78366 24.5909 4.91728 23.8009L6.09985 16.8096C6.1523 16.4995 6.0503 16.1833 5.82653 15.9623L0.804962 11.003C0.239018 10.4441 0.554599 9.47891 1.34143 9.3623L8.25993 8.33693C8.57489 8.29025 8.84653 8.09117 8.9859 7.80489L12.0692 1.47118Z" fill="#EDEDED"/>
</svg>
