<svg width="20" height="20" viewBox="0 0 20 20" fill="none" xmlns="http://www.w3.org/2000/svg">
<path fill-rule="evenodd" clip-rule="evenodd" d="M4.66667 4.66536C3.93029 4.66536 3.33333 5.26232 3.33333 5.9987V12.2146L4.38765 9.31521C4.67506 8.52483 5.42622 7.9987 6.26724 7.9987H14V7.33203C14 6.96384 13.7015 6.66536 13.3333 6.66536H10C9.82319 6.66536 9.65362 6.59513 9.5286 6.4701L8.11438 5.05589C7.86433 4.80584 7.5252 4.66536 7.17157 4.66536H4.66667ZM15.3333 7.9987H16.3815C17.3068 7.9987 17.9508 8.91811 17.6346 9.78769L15.7719 14.91C15.3887 15.9639 14.3872 16.6654 13.2658 16.6654H2.66667C2.29848 16.6654 2 16.3669 2 15.9987V5.9987C2 4.52594 3.19391 3.33203 4.66667 3.33203H7.17157C7.87882 3.33203 8.55709 3.61298 9.05719 4.11308L10.2761 5.33203H13.3333C14.4379 5.33203 15.3333 6.22746 15.3333 7.33203V7.9987ZM3.61847 15.332H13.2658C13.8265 15.332 14.3273 14.9813 14.5189 14.4544L16.3815 9.33203H6.26724C5.9869 9.33203 5.73651 9.50741 5.64071 9.77087L3.61847 15.332Z" fill="#545454"/>
<path fill-rule="evenodd" clip-rule="evenodd" d="M4.66667 4.66536C3.93029 4.66536 3.33333 5.26232 3.33333 5.9987V12.2146L4.38765 9.31521C4.67506 8.52483 5.42622 7.9987 6.26724 7.9987H14V7.33203C14 6.96384 13.7015 6.66536 13.3333 6.66536H10C9.82319 6.66536 9.65362 6.59513 9.5286 6.4701L8.11438 5.05589C7.86433 4.80584 7.5252 4.66536 7.17157 4.66536H4.66667ZM15.3333 7.9987H16.3815C17.3068 7.9987 17.9508 8.91811 17.6346 9.78769L15.7719 14.91C15.3887 15.9639 14.3872 16.6654 13.2658 16.6654H2.66667C2.29848 16.6654 2 16.3669 2 15.9987V5.9987C2 4.52594 3.19391 3.33203 4.66667 3.33203H7.17157C7.87882 3.33203 8.55709 3.61298 9.05719 4.11308L10.2761 5.33203H13.3333C14.4379 5.33203 15.3333 6.22746 15.3333 7.33203V7.9987ZM3.61847 15.332H13.2658C13.8265 15.332 14.3273 14.9813 14.5189 14.4544L16.3815 9.33203H6.26724C5.9869 9.33203 5.73651 9.50741 5.64071 9.77087L3.61847 15.332Z" fill="#545454"/>
</svg>
