<svg width="20" height="20" viewBox="0 0 20 20" fill="none" xmlns="http://www.w3.org/2000/svg">
<path fill-rule="evenodd" clip-rule="evenodd" d="M4.66618 4.66536C3.9298 4.66536 3.33285 5.26232 3.33285 5.9987V13.9987C3.33285 14.7351 3.9298 15.332 4.66618 15.332H15.3328C16.0692 15.332 16.6662 14.7351 16.6662 13.9987V7.9987C16.6662 7.26232 16.0692 6.66536 15.3328 6.66536H10.6662C10.4894 6.66536 10.3198 6.59513 10.1948 6.4701L8.78056 5.05589C8.53051 4.80584 8.19137 4.66536 7.83775 4.66536H4.66618ZM1.99951 5.9987C1.99951 4.52594 3.19342 3.33203 4.66618 3.33203H7.83775C8.545 3.33203 9.22327 3.61298 9.72337 4.11308L10.9423 5.33203H15.3328C16.8056 5.33203 17.9995 6.52594 17.9995 7.9987V13.9987C17.9995 15.4715 16.8056 16.6654 15.3328 16.6654H4.66618C3.19342 16.6654 1.99951 15.4715 1.99951 13.9987V5.9987Z" fill="#767676"/>
<path fill-rule="evenodd" clip-rule="evenodd" d="M4.66618 4.66536C3.9298 4.66536 3.33285 5.26232 3.33285 5.9987V13.9987C3.33285 14.7351 3.9298 15.332 4.66618 15.332H15.3328C16.0692 15.332 16.6662 14.7351 16.6662 13.9987V7.9987C16.6662 7.26232 16.0692 6.66536 15.3328 6.66536H10.6662C10.4894 6.66536 10.3198 6.59513 10.1948 6.4701L8.78056 5.05589C8.53051 4.80584 8.19137 4.66536 7.83775 4.66536H4.66618ZM1.99951 5.9987C1.99951 4.52594 3.19342 3.33203 4.66618 3.33203H7.83775C8.545 3.33203 9.22327 3.61298 9.72337 4.11308L10.9423 5.33203H15.3328C16.8056 5.33203 17.9995 6.52594 17.9995 7.9987V13.9987C17.9995 15.4715 16.8056 16.6654 15.3328 16.6654H4.66618C3.19342 16.6654 1.99951 15.4715 1.99951 13.9987V5.9987Z" fill="#767676"/>
</svg>
