<svg width="24" height="25" viewBox="0 0 24 25" fill="none" xmlns="http://www.w3.org/2000/svg">
<path d="M24 9.65716V19.2026C23.9984 20.468 23.4711 21.681 22.5338 22.5758C21.5964 23.4705 20.3256 23.9738 19 23.9753H5C3.6744 23.9738 2.40356 23.4705 1.46622 22.5758C0.528882 21.681 0.00158786 20.468 0 19.2026L0 7.74807C0.00158786 6.48273 0.528882 5.26965 1.46622 4.37492C2.40356 3.48018 3.6744 2.97686 5 2.97534H7.528C7.9934 2.97571 8.45239 3.07895 8.869 3.27698L12.025 4.78898C12.1644 4.85286 12.3173 4.88551 12.472 4.88443H19C20.3256 4.88595 21.5964 5.38927 22.5338 6.28401C23.4711 7.17874 23.9984 8.39182 24 9.65716ZM2 7.74807V8.70261H11.908H21.816C21.6099 8.1462 21.2288 7.66416 20.7247 7.32243C20.2206 6.98069 19.6183 6.79597 19 6.79352H12.472C12.0066 6.79315 11.5476 6.68991 11.131 6.49189L7.975 4.98466C7.83596 4.91913 7.68306 4.88484 7.528 4.88443H5C4.20435 4.88443 3.44129 5.18614 2.87868 5.72317C2.31607 6.26021 2 6.98859 2 7.74807ZM22 19.2026V10.6117H12H2V19.2026C2 19.9621 2.31607 20.6905 2.87868 21.2275C3.44129 21.7645 4.20435 22.0663 5 22.0663H19C19.7957 22.0663 20.5587 21.7645 21.1213 21.2275C21.6839 20.6905 22 19.9621 22 19.2026Z" fill="black"/>
</svg>
