<svg width="24" height="24" viewBox="0 0 24 24" fill="none" xmlns="http://www.w3.org/2000/svg">
<path fill-rule="evenodd" clip-rule="evenodd" d="M2 11.0621L2 22H22V11.0621L12 2.61768L2 11.0621ZM0 11.0621V22C0 23.1045 0.895431 24 2 24H22C23.1046 24 24 23.1045 24 22V11.0621C24 10.4731 23.7404 9.91407 23.2904 9.53406L13.2904 1.08962C12.5452 0.460362 11.4548 0.460363 10.7096 1.08962L0.709638 9.53406C0.259626 9.91407 0 10.4731 0 11.0621Z" fill="#262626"/>
<path fill-rule="evenodd" clip-rule="evenodd" d="M15 22V19C15 17.3431 13.6569 16 12 16C10.3431 16 9 17.3431 9 19V22H15ZM12 14C9.23858 14 7 16.2386 7 19V24H17V19C17 16.2386 14.7614 14 12 14Z" fill="black"/>
</svg>
